<svg width="48" height="49" viewBox="0 0 48 49" fill="none" xmlns="http://www.w3.org/2000/svg">
<rect width="48" height="49" rx="24" fill="#F1F2F8"/>
<g clip-path="url(#clip0_63_63)">
<path d="M14 24.5C14 22.6867 14.4467 21.0133 15.34 19.48C16.2333 17.9467 17.4467 16.7333 18.98 15.84C20.5133 14.9467 22.1867 14.5 24 14.5C25.8133 14.5 27.4867 14.9467 29.02 15.84C30.5533 16.7333 31.7667 17.9467 32.66 19.48C33.5533 21.0133 34 22.6867 34 24.5C34 26.3133 33.5533 27.9867 32.66 29.52C31.7667 31.0533 30.5533 32.2667 29.02 33.16C27.4867 34.0533 25.8133 34.5 24 34.5C22.1867 34.5 20.5133 34.0533 18.98 33.16C17.4467 32.2667 16.2333 31.0533 15.34 29.52C14.4467 27.9867 14 26.3133 14 24.5ZM15.66 24.5C15.66 26.58 16.36 28.4133 17.76 30C18.4 28.7467 19.4133 27.5533 20.8 26.42C22.1867 25.2867 23.54 24.5733 24.86 24.28C24.66 23.8133 24.4667 23.3933 24.28 23.02C21.9867 23.7533 19.5067 24.12 16.84 24.12C16.32 24.12 15.9333 24.1133 15.68 24.1C15.68 24.1533 15.6767 24.22 15.67 24.3C15.6633 24.38 15.66 24.4467 15.66 24.5ZM15.92 22.44C16.2133 22.4667 16.6467 22.48 17.22 22.48C19.4467 22.48 21.56 22.18 23.56 21.58C22.5467 19.78 21.4333 18.28 20.22 17.08C19.1667 17.6133 18.2633 18.3533 17.51 19.3C16.7567 20.2467 16.2267 21.2933 15.92 22.44ZM18.9 31.08C20.4067 32.2533 22.1067 32.84 24 32.84C24.9867 32.84 25.9667 32.6533 26.94 32.28C26.6733 30 26.1533 27.7933 25.38 25.66C24.1533 25.9267 22.9167 26.6 21.67 27.68C20.4233 28.76 19.5 29.8933 18.9 31.08ZM21.96 16.44C23.1333 17.6533 24.22 19.1667 25.22 20.98C27.0333 20.22 28.4 19.2533 29.32 18.08C27.7733 16.8 26 16.16 24 16.16C23.32 16.16 22.64 16.2533 21.96 16.44ZM25.94 22.4C26.14 22.8267 26.3667 23.3667 26.62 24.02C27.6067 23.9267 28.68 23.88 29.84 23.88C30.6667 23.88 31.4867 23.9 32.3 23.94C32.1933 22.1267 31.54 20.5133 30.34 19.1C29.4733 20.3933 28.0067 21.4933 25.94 22.4ZM27.12 25.42C27.8 27.3933 28.26 29.42 28.5 31.5C29.5533 30.82 30.4133 29.9467 31.08 28.88C31.7467 27.8133 32.1467 26.66 32.28 25.42C31.3067 25.3533 30.42 25.32 29.62 25.32C28.8867 25.32 28.0533 25.3533 27.12 25.42Z" fill="#3461FD"/>
</g>
<defs>
<clipPath id="clip0_63_63">
<rect width="20" height="20" fill="white" transform="translate(14 14.5)"/>
</clipPath>
</defs>
</svg>
