<svg width="48" height="49" viewBox="0 0 48 49" fill="none" xmlns="http://www.w3.org/2000/svg">
<rect width="48" height="49" rx="24" fill="#F1F2F8"/>
<path d="M22.0701 23.4214C22.0701 23.4214 23.9624 23.2827 23.9624 21.0924C23.9624 18.902 22.4142 17.833 20.4532 17.833H14V30.0736H20.4532C20.4532 30.0736 24.3926 30.1964 24.3926 26.4607C24.3926 26.4608 24.5643 23.4214 22.0701 23.4214ZM19.9887 20.0086H20.4532C20.4532 20.0086 21.3303 20.0086 21.3303 21.2822C21.3303 22.5556 20.8145 22.7403 20.2293 22.7403H16.8433V20.0086H19.9887ZM20.2708 27.898H16.8433V24.6269H20.4532C20.4532 24.6269 21.7605 24.61 21.7605 26.3079C21.7605 27.7397 20.784 27.8872 20.2708 27.898ZM29.6465 20.9474C24.8774 20.9474 24.8816 25.6506 24.8816 25.6506C24.8816 25.6506 24.5544 30.3296 29.6465 30.3296C29.6465 30.3296 33.8898 30.5689 33.8898 27.0747H31.7075C31.7075 27.0747 31.7803 28.3905 29.7192 28.3905C29.7192 28.3905 27.5366 28.5349 27.5366 26.2609H33.9626C33.9626 26.2609 34.6657 20.9474 29.6465 20.9474ZM27.5126 24.6269C27.5126 24.6269 27.7791 22.7402 29.6949 22.7402C31.6104 22.7402 31.5864 24.6269 31.5864 24.6269H27.5126ZM32.0948 20.0615H26.9783V18.5541H32.0948V20.0615Z" fill="#3461FD"/>
</svg>
