<svg width="69" height="69" viewBox="0 0 69 69" fill="none" xmlns="http://www.w3.org/2000/svg">
<rect x="0.462891" y="0.623047" width="67.7797" height="67.7797" rx="33.8898" fill="#384CEA"/>
<g clip-path="url(#clip0_68_403)">
<path d="M50.052 22.3604H32.1129C31.6058 22.3604 31.1621 22.7956 31.1621 23.293V28.4535H32.9993V24.2256H49.1001V37.6555H33.0004V34.0493H31.1621V38.5881C31.1621 39.0856 31.6058 39.5208 32.1129 39.5208H37.6912L35.1556 49.531C35.0288 50.0284 35.3458 50.5258 35.8529 50.6502C36.36 50.7745 36.8671 50.4637 36.9939 49.9663L39.6562 39.5208H42.6355L45.2979 49.9663C45.4246 50.4015 45.805 50.6502 46.1853 50.6502H46.4389C46.946 50.5258 47.2629 50.0284 47.1361 49.531L44.6006 39.5208H50.052C50.5591 39.5208 51.0029 39.0856 51.0029 38.5881V23.293C51.0029 22.7956 50.5591 22.3604 50.0532 22.3604H50.052Z" fill="white"/>
<path d="M34.5225 29.9453H24.3803C19.1824 29.9453 16.7736 33.365 16.7102 33.4893C16.3922 33.9245 16.3922 34.5463 16.7102 34.9815L19.0545 38.2147C19.3081 38.5877 19.7518 38.7742 20.1321 38.7742C20.3857 38.7742 20.7026 38.7132 20.8928 38.5266C20.9562 38.4645 21.0196 38.4012 21.0829 38.3401V39.2716L20.2589 49.0343C20.1955 49.8426 20.8294 50.5265 21.6534 50.5887C22.4775 50.6509 23.1748 50.0291 23.2382 49.2208L24.0622 39.8323H24.6327L25.4568 49.2208C25.5202 49.9669 26.1541 50.5887 26.9147 50.5887H27.0415C27.8656 50.5265 28.4995 49.8426 28.4361 49.0343L27.612 39.2716V32.5567H34.5225C35.2832 32.5567 35.8537 31.9349 35.8537 31.251C35.8537 30.5049 35.2832 29.9453 34.5225 29.9453ZM21.2109 36.5359L19.6261 34.2976C20.0065 33.9867 20.577 33.5526 21.2742 33.2417L21.2109 36.5359Z" fill="white"/>
<path d="M27.4224 26.2142C27.4224 27.8286 26.0879 29.1365 24.4432 29.1365C22.7984 29.1365 21.4639 27.8275 21.4639 26.2142C21.4639 24.601 22.7984 23.292 24.4432 23.292C26.0879 23.292 27.4224 24.601 27.4224 26.2142Z" fill="white"/>
</g>
<defs>
<clipPath id="clip0_68_403">
<rect width="34.5323" height="28.3165" fill="white" transform="translate(16.4717 22.3604)"/>
</clipPath>
</defs>
</svg>
