<svg width="48" height="49" viewBox="0 0 48 49" fill="none" xmlns="http://www.w3.org/2000/svg">
<rect width="48" height="49" rx="24" fill="#F1F2F8"/>
<g clip-path="url(#clip0_63_64)">
<path d="M14 16.8232C14 16.1498 14.2252 15.5943 14.6757 15.1566C15.1261 14.7188 15.7117 14.5 16.4324 14.5C17.1403 14.5 17.713 14.7155 18.1506 15.1465C18.601 15.5909 18.8263 16.17 18.8263 16.8838C18.8263 17.5303 18.6075 18.069 18.1699 18.5C17.7194 18.9444 17.1274 19.1667 16.3938 19.1667H16.3745C15.6667 19.1667 15.094 18.9444 14.6564 18.5C14.2188 18.0555 14 17.4966 14 16.8232ZM14.251 34.5V21.005H18.5367V34.5H14.251ZM20.9112 34.5H25.1969V26.9646C25.1969 26.4932 25.2484 26.1296 25.3514 25.8737C25.5315 25.4158 25.805 25.0286 26.1718 24.7121C26.5386 24.3956 26.9987 24.2374 27.5521 24.2374C28.9936 24.2374 29.7143 25.2542 29.7143 27.2879V34.5H34V26.7626C34 24.7693 33.5496 23.2576 32.6486 22.2273C31.7477 21.197 30.5573 20.6818 29.0772 20.6818C27.417 20.6818 26.1236 21.4293 25.1969 22.9242V22.9646H25.1776L25.1969 22.9242V21.005H20.9112C20.9369 21.436 20.9498 22.7761 20.9498 25.0252C20.9498 27.2744 20.9369 30.4326 20.9112 34.5Z" fill="#3461FD"/>
</g>
<defs>
<clipPath id="clip0_63_64">
<rect width="20" height="20" fill="white" transform="translate(14 14.5)"/>
</clipPath>
</defs>
</svg>
