<svg width="83" height="30" viewBox="0 0 83 30" fill="none" xmlns="http://www.w3.org/2000/svg">
<path fill-rule="evenodd" clip-rule="evenodd" d="M13.7004 14.5602L24.324 0.0498047H17.7544L7.13086 14.5602L18.1704 29.6378H24.74L13.7004 14.5602Z" fill="white"/>
<path fill-rule="evenodd" clip-rule="evenodd" d="M39.4951 0.0498047H40.2116H44.785H54.8075V5.3397H44.785V29.6398H39.4951V0.0498047Z" fill="white"/>
<path d="M34.7606 10.6279H29.4727V29.6381H34.7606V10.6279Z" fill="white"/>
<path d="M5.2879 5.33984H0V29.6399H5.2879V5.33984Z" fill="white"/>
<path fill-rule="evenodd" clip-rule="evenodd" d="M60.1035 14.8447C60.1035 16.1383 60.3602 17.3723 60.826 18.4967C61.3096 19.6649 62.0201 20.7158 62.8997 21.5954C63.7794 22.4751 64.8302 23.1856 65.9984 23.6692C67.1229 24.1349 68.3568 24.3916 69.6504 24.3916C70.4644 24.3916 71.2525 24.2901 72.0048 24.0991C72.781 23.902 73.5213 23.6095 74.2079 23.2353C74.9084 22.8532 75.5592 22.3855 76.1384 21.8462C76.7215 21.3068 77.237 20.6939 77.6708 20.0232L77.6907 19.9913L82.1507 22.8472L82.1189 22.897C81.4462 23.9379 80.6441 24.8892 79.7406 25.727C78.8371 26.5649 77.828 27.2913 76.7374 27.8864C75.6687 28.4675 74.5204 28.9233 73.3103 29.2297C72.1401 29.5263 70.9122 29.6855 69.6504 29.6855C67.6403 29.6855 65.7238 29.2855 63.9744 28.561C62.1594 27.8088 60.5235 26.7062 59.1542 25.337C57.787 23.9697 56.6824 22.3338 55.9301 20.5167C55.2057 18.7694 54.8057 16.8508 54.8057 14.8408H60.1035V14.8447ZM69.6504 0C70.8883 0 72.0904 0.151253 73.2407 0.437838C74.4268 0.732385 75.5572 1.17022 76.61 1.72946C77.6828 2.30065 78.6818 3.00119 79.5794 3.8092C80.479 4.6192 81.281 5.53866 81.9596 6.54569L82.1189 6.78054C80.664 7.77762 79.1913 8.75877 77.7265 9.74192L77.5673 9.50708C77.1315 8.86027 76.614 8.2672 76.0349 7.74776C75.4597 7.22833 74.8169 6.77855 74.1263 6.41036C73.4497 6.05014 72.7212 5.76754 71.959 5.58046C71.2206 5.39736 70.4465 5.29984 69.6504 5.29984V0.00199212V0Z" fill="white"/>
<path d="M34.7606 0.0498047H29.4727V5.33771H34.7606V0.0498047Z" fill="white"/>
</svg>
