<svg width="71" height="71" viewBox="0 0 71 71" fill="none" xmlns="http://www.w3.org/2000/svg">
<rect x="0.462891" y="0.197266" width="70.039" height="70.039" rx="35.0195" fill="#3746BB"/>
<g clip-path="url(#clip0_68_413)">
<path d="M21.5422 34.792H31.2753C31.9389 34.792 32.4551 35.3062 32.4551 35.9672C32.4551 36.6283 31.9389 37.1425 31.2753 37.1425H22.7219V47.4257C22.7219 48.0868 22.2058 48.601 21.5422 48.601C20.8785 48.601 20.3624 48.0868 20.3624 47.4257V35.9672C20.3624 35.3062 20.8785 34.792 21.5422 34.792Z" fill="white"/>
<path d="M39.1289 20.9944C37.3066 21.1924 35.9912 22.8228 36.19 24.6381C36.3889 26.4535 38.0268 27.7638 39.8479 27.5657C41.6702 27.369 42.9856 25.7373 42.7868 23.922C42.5879 22.108 40.9513 20.7963 39.1289 20.9944Z" fill="white"/>
<path d="M39.6813 40.8876H44.4741C45.5802 40.8876 46.5387 40.0797 46.7599 38.9779L48.4559 29.7229C48.6033 29.0619 49.1932 28.6946 49.7831 28.7681C50.4467 28.915 50.8154 29.5026 50.7417 30.0902L49.1195 39.3452C48.7508 41.5487 46.8337 43.1647 44.5479 43.1647H40.5661V47.3514C40.5661 48.0125 40.05 48.5267 39.3863 48.5267C38.7227 48.5267 38.2066 48.0125 38.2066 47.3514V42.3567C38.2066 41.6222 38.8702 40.8876 39.6813 40.8876Z" fill="white"/>
<path d="M35.921 36.0405H38.9442L38.1331 32.4413L35.9948 33.4696C35.7736 33.5431 35.5524 33.6165 35.3311 33.6165H35.2574L32.013 33.4696C31.1282 33.3962 30.4646 32.7351 30.5383 31.8537C30.612 30.9723 31.2757 30.3846 32.1605 30.3846L35.0362 30.5315C35.0362 30.5315 38.2806 28.8422 38.6493 28.7687C39.0917 28.6952 40.9351 28.2545 40.9351 28.2545C41.5987 28.1076 42.2623 28.2545 42.7785 28.6218C43.3684 28.9891 43.737 29.5032 43.8845 30.1643L45.2104 36.6281C45.3579 37.3626 45.2104 38.0971 44.6943 38.6113C44.2519 39.1989 43.5883 39.4927 42.8509 39.4927H37.4682C37.0995 39.4927 36.8783 39.7865 36.8783 40.0803V46.7645C36.8783 47.7193 36.0672 48.4538 35.1086 48.4538C34.1501 48.4538 33.339 47.6459 33.339 46.7645V38.5378C33.4127 37.1422 34.5187 36.0405 35.921 36.0405Z" fill="white"/>
</g>
<defs>
<clipPath id="clip0_68_413">
<rect width="30.3884" height="27.6258" fill="white" transform="matrix(-1 0 0 1 50.751 20.9746)"/>
</clipPath>
</defs>
</svg>
