<svg width="71" height="71" viewBox="0 0 71 71" fill="none" xmlns="http://www.w3.org/2000/svg">
<rect x="0.933594" y="0.197266" width="70.039" height="70.039" rx="35.0195" fill="#384CEA"/>
<path d="M35.2409 26.1708C33.1495 26.5146 31.7291 28.5096 32.0687 30.6272C32.4079 32.7448 34.3786 34.1829 36.47 33.8391C38.5614 33.4956 39.9818 31.5003 39.6422 29.3827C39.3027 27.2655 37.3323 25.8273 35.2409 26.1708Z" fill="#F9F9F9"/>
<path d="M29.3169 43.6384H42.394C42.3248 41.7619 41.6211 39.9957 40.4431 38.691C39.2048 37.3194 37.5515 36.574 35.8555 36.574C34.1595 36.574 32.5061 37.3194 31.2678 38.691C30.0898 39.9957 29.3861 41.7619 29.3169 43.6384Z" stroke="#F9F9F9" stroke-width="2.25932"/>
<path d="M21.4322 30.0152L21.4322 30.0151C21.2071 28.6291 22.1484 27.3232 23.5346 27.0981L21.4322 30.0152ZM21.4322 30.0152C21.657 31.4013 22.963 32.3427 24.3492 32.1177L24.3492 32.1176M21.4322 30.0152L24.3492 32.1176M24.3492 32.1176C25.7353 31.8928 26.6767 30.5867 26.4516 29.2006M24.3492 32.1176L26.4516 29.2006M26.4516 29.2006C26.2266 27.8147 24.9207 26.8733 23.5346 27.0981L26.4516 29.2006Z" fill="#F9F9F9" stroke="#F9F9F9" stroke-width="1.12966"/>
<path d="M45.604 30.0152L45.604 30.0151C45.379 28.6291 46.3202 27.3232 47.7064 27.0981L45.604 30.0152ZM45.604 30.0152C45.8289 31.4013 47.1349 32.3427 48.521 32.1177L48.5211 32.1176M45.604 30.0152L48.5211 32.1176M48.5211 32.1176C49.9072 31.8928 50.8486 30.5867 50.6235 29.2006M48.5211 32.1176L50.6235 29.2006M50.6235 29.2006C50.3985 27.8147 49.0926 26.8733 47.7065 27.0981L50.6235 29.2006Z" fill="#F9F9F9" stroke="#F9F9F9" stroke-width="1.12966"/>
<path d="M18.5265 39.8737H28.6669C28.5691 38.4711 28.0258 37.1639 27.1511 36.1894C26.1855 35.1134 24.9036 34.5359 23.5967 34.5359C22.2898 34.5359 21.0079 35.1134 20.0422 36.1894C19.1676 37.1639 18.6242 38.4711 18.5265 39.8737Z" stroke="#F9F9F9" stroke-width="2.25932"/>
<path d="M42.6993 39.8737H52.8397C52.742 38.4711 52.1986 37.1639 51.324 36.1894C50.3583 35.1134 49.0765 34.5359 47.7695 34.5359C46.4626 34.5359 45.1807 35.1134 44.2151 36.1894C43.3405 37.1639 42.7971 38.4711 42.6993 39.8737Z" stroke="#F9F9F9" stroke-width="2.25932"/>
</svg>
