<svg width="71" height="71" viewBox="0 0 71 71" fill="none" xmlns="http://www.w3.org/2000/svg">
<rect x="0.933594" y="0.493164" width="70.039" height="70.039" rx="35.0195" fill="#384CEA"/>
<g clip-path="url(#clip0_68_424)">
<path d="M50.5318 41.1506V33.1944C50.5318 30.8075 48.5587 28.8848 46.1094 28.8848H32.7743C30.5632 28.8848 28.7262 30.476 28.42 32.5645L23.8956 29.7135C23.2833 29.3489 22.5349 29.3157 21.8885 29.6472C21.2422 29.9787 20.834 30.6418 20.834 31.3711V43.0071C20.834 43.7364 21.2422 44.3994 21.8885 44.7309C22.1947 44.8967 22.5009 44.963 22.807 44.963C23.1812 44.963 23.5554 44.8636 23.8616 44.6646L28.386 41.8137C28.7262 43.869 30.5632 45.4603 32.7743 45.4603H46.1094C48.5587 45.4603 50.5318 43.5375 50.5318 41.1506ZM48.4907 41.1506C48.4907 42.4435 47.4361 43.4712 46.1094 43.4712H32.7743C31.4476 43.4712 30.3931 42.4435 30.3931 41.1506V33.1944C30.3931 31.9015 31.4476 30.8738 32.7743 30.8738H46.1094C47.4361 30.8738 48.4907 31.9015 48.4907 33.1944V41.1506Z" fill="#F9F9F9"/>
</g>
<defs>
<clipPath id="clip0_68_424">
<rect width="29.6978" height="16.5755" fill="white" transform="translate(20.834 28.8848)"/>
</clipPath>
</defs>
</svg>
